HIERARCHY
ROOT Hips
{
	OFFSET 0.000000 88.474243 0.000000
	CHANNELS 6 Xposition Yposition Zposition Zrotation Yrotation Xrotation 
	JOINT Hips_Spine
	{
		OFFSET 0.000000 0.000000 0.000000
		CHANNELS 3 Zrotation Yrotation Xrotation
		JOINT Spine
		{
			OFFSET 0.005100 8.711998 -0.691000
			CHANNELS 3 Zrotation Yrotation Xrotation
			JOINT Spine1
			{
				OFFSET -0.009200 8.660301 -1.275000
				CHANNELS 3 Zrotation Yrotation Xrotation
				JOINT Spine2
				{
					OFFSET 0.006300 9.852501 -1.857000
					CHANNELS 3 Zrotation Yrotation Xrotation
					JOINT Spine2_Neck
					{
						OFFSET 0.000000 0.000000 0.000000
						CHANNELS 3 Zrotation Yrotation Xrotation
						JOINT Neck
						{
							OFFSET 0.016300 11.420799 -0.263300
							CHANNELS 3 Zrotation Yrotation Xrotation
							End Site #name: Head
							{
								OFFSET -0.019200 9.262405 2.362500
							}
						}
					}
					JOINT Spine2_LeftShoulder
					{
						OFFSET 0.000000 0.000000 0.000000
						CHANNELS 3 Zrotation Yrotation Xrotation
						JOINT LeftShoulder
						{
							OFFSET 5.616900 6.732201 -0.345700
							CHANNELS 3 Zrotation Yrotation Xrotation
							JOINT LeftArm
							{
								OFFSET 10.664888 -0.183372 -2.440700
								CHANNELS 3 Zrotation Yrotation Xrotation
								JOINT LeftForeArm
								{
									OFFSET 27.459126 0.000000 0.000000
									CHANNELS 3 Zrotation Yrotation Xrotation
									End Site #name: LeftHand
									{
										OFFSET 21.306858 0.000000 0.000000
									}
								}
							}
						}
					}
					JOINT Spine2_RightShoulder
					{
						OFFSET 0.000000 0.000000 0.000000
						CHANNELS 3 Zrotation Yrotation Xrotation
						JOINT RightShoulder
						{
							OFFSET -5.580300 6.737503 -0.344400
							CHANNELS 3 Zrotation Yrotation Xrotation
							JOINT RightArm
							{
								OFFSET -10.679335 -0.188484 -2.383900
								CHANNELS 3 Zrotation Yrotation Xrotation
								JOINT RightForeArm
								{
									OFFSET -27.503529 0.000000 0.000000
									CHANNELS 3 Zrotation Yrotation Xrotation
									End Site #name: RightHand
									{
										OFFSET -21.306808 0.000000 0.000000
									}
								}
							}
						}
					}
				}
			}
		}
	}
	JOINT Hips_LeftUpLeg
	{
		OFFSET 0.000000 0.000000 0.000000
		CHANNELS 3 Zrotation Yrotation Xrotation
		JOINT LeftUpLeg
		{
			OFFSET 6.857700 -6.739601 0.312100
			CHANNELS 3 Zrotation Yrotation Xrotation
			JOINT LeftLeg
			{
				OFFSET -0.367590 -34.731552 -4.572400
				CHANNELS 3 Zrotation Yrotation Xrotation
				End Site #name: LeftFoot
				{
					OFFSET 0.367590 -34.656704 -6.067400
				}
			}
		}
	}
	JOINT Hips_RightUpLeg
	{
		OFFSET 0.000000 0.000000 0.000000
		CHANNELS 3 Zrotation Yrotation Xrotation
		JOINT RightUpLeg
		{
			OFFSET -6.876100 -6.733299 0.301000
			CHANNELS 3 Zrotation Yrotation Xrotation
			JOINT RightLeg
			{
				OFFSET 0.347353 -34.795158 -4.515900
				CHANNELS 3 Zrotation Yrotation Xrotation
				End Site #name: RightFoot
				{
					OFFSET -0.347353 -34.589367 -6.070300
				}
			}
		}
	}
}
MOTION
Frames: 6
Frame Time: 0.041667
0.423745 0.638657 -1.468403 0.309590 14.087770 -7.490580 -0.000000 0.000000 -0.000000 -2.271573 -0.472566 -3.976133 2.320830 -1.875566 -5.726477 0.000000 0.000000 0.000000 2.794118 -1.320510 -5.686964 3.150584 -4.824406 -3.453867 1.399182 -1.613398 -6.250825 -19.126363 0.491841 9.071433 -54.098997 10.710080 0.322925 -0.707270 -22.219882 7.624316 1.719743 -1.591825 -3.026519 4.370903 5.953445 1.358681 64.109059 -1.170459 -8.311569 0.411986 45.500443 -0.737402 0.000000 0.000000 -0.000000 -9.303876 24.942693 -1.408086 -2.088635 1.457037 18.172386 0.000000 0.000000 0.000000 -5.988477 6.530868 -18.456013 5.630842 -2.561492 15.451820 
0.179760 0.637991 -1.520035 -0.132542 15.214212 -7.818697 -0.000000 0.000000 -0.000000 -1.158732 -0.441491 -4.695721 2.507943 -1.876620 -5.657873 0.000000 0.000000 0.000000 2.938958 -1.260298 -5.623470 3.100881 -4.894219 -3.124327 1.600799 -1.561614 -6.127980 -18.583858 0.398011 9.145244 -54.984955 11.754696 -0.339854 -0.726647 -22.814363 7.472012 1.897846 -1.545976 -3.020527 4.489913 6.050591 1.402011 64.036759 -1.092808 -7.973157 0.418388 45.419464 -0.741600 0.000000 -0.000000 -0.000000 -8.637229 25.346338 -1.008472 -2.228595 1.111361 18.199421 0.000000 0.000000 0.000000 -5.156764 6.848927 -18.634735 5.595933 -3.327362 15.410154 
-0.035086 0.630251 -1.573465 -0.541822 16.331871 -8.151109 -0.000000 0.000000 -0.000000 -0.140187 -0.385233 -5.261452 2.693241 -1.875219 -5.549568 0.000000 0.000000 0.000000 3.077542 -1.198624 -5.541268 3.031088 -5.056098 -2.702301 1.799734 -1.508122 -5.979920 -18.037300 0.257105 9.180457 -55.805615 12.667638 -0.964678 -0.754775 -23.371789 7.348153 2.075619 -1.501433 -3.007617 4.704818 6.156510 1.441232 63.931901 -1.056812 -7.672981 0.425861 45.566426 -0.746702 0.000000 -0.000000 -0.000000 -8.005532 25.608253 -0.425603 -2.398480 0.789195 17.920868 0.000000 0.000000 0.000000 -4.362016 7.167053 -18.791337 5.581104 -4.000561 15.417593 
-0.215485 0.620682 -1.627276 -0.876919 17.070148 -8.423774 -0.000000 -0.000000 -0.000000 0.669338 -0.338856 -5.728568 2.862978 -1.875176 -5.430015 0.000000 0.000000 0.000000 3.202267 -1.140122 -5.456860 2.960650 -5.223876 -2.229076 1.982371 -1.460769 -5.831761 -17.476925 0.073385 9.190428 -56.569707 13.461779 -1.518186 -0.785322 -23.923085 7.238487 2.238353 -1.458499 -2.988460 4.964315 6.280705 1.483249 63.778137 -1.052659 -7.426827 0.433116 45.811735 -0.750420 0.000000 -0.000000 -0.000000 -7.339732 25.838093 0.260500 -2.610928 0.435073 17.565761 0.000000 -0.000000 0.000000 -3.595972 7.505818 -18.917582 5.751738 -4.302349 15.455709 
-0.353030 0.610839 -1.682037 -1.106685 17.263059 -8.597862 -0.000000 -0.000000 -0.000000 1.368823 -0.286505 -6.047607 3.002713 -1.877689 -5.314596 0.000000 0.000000 0.000000 3.303953 -1.087808 -5.379216 2.874874 -5.382581 -1.705554 2.137178 -1.424234 -5.699189 -16.924406 -0.127846 9.179829 -57.235966 14.039266 -2.118985 -0.824084 -24.439403 7.132636 2.378130 -1.423410 -2.966209 5.268377 6.431594 1.526454 63.586103 -1.090087 -7.271949 0.444350 46.195094 -0.752616 -0.000000 -0.000000 -0.000000 -6.700635 26.024787 0.991824 -2.849981 0.128482 17.157539 0.000000 -0.000000 0.000000 -2.889950 7.942171 -19.043705 5.940385 -4.543000 15.499807 
-0.438277 0.601202 -1.739699 -1.223869 16.807600 -8.677800 -0.000000 -0.000000 -0.000000 1.966954 -0.241820 -6.249512 3.119634 -1.882083 -5.210195 0.000000 0.000000 0.000000 3.386691 -1.042879 -5.300464 2.758993 -5.529727 -1.112474 2.265205 -1.394450 -5.574769 -16.374059 -0.346009 9.145514 -57.804466 14.417740 -2.740206 -0.873360 -24.939260 7.017462 2.491509 -1.397403 -2.937718 5.595634 6.607988 1.572905 63.420308 -1.104778 -7.137362 0.461869 46.777038 -0.747319 -0.000000 -0.000000 -0.000000 -6.101802 26.106327 1.736334 -3.134020 -0.070734 16.673333 0.000000 -0.000000 0.000000 -2.285857 8.466314 -19.201384 6.114465 -4.784888 15.658353 
